<svg width="789" height="789" viewBox="0 0 789 789" fill="none" xmlns="http://www.w3.org/2000/svg">
<path d="M625.995 127.391C625.995 139.495 635.807 149.307 647.911 149.307H767.083C779.188 149.307 789 159.12 789 171.224V399.979C789 405.396 786.994 410.621 783.369 414.646L452.744 781.75C448.588 786.365 442.669 789 436.459 789H117.802C52.7418 789 0 736.258 0 671.198V117.802C1.12975e-05 52.7418 52.7418 0 117.802 0H604.078C616.182 0 625.995 9.81243 625.995 21.9167V127.391ZM789 767.083C789 779.188 779.188 789 767.083 789H647.911C635.807 789 625.995 779.188 625.995 767.083V661.609C625.995 649.505 635.807 639.693 647.911 639.693H767.083C779.188 639.693 789 649.505 789 661.609V767.083ZM248.465 186.292C214.128 186.292 186.292 214.128 186.292 248.465V540.535C186.292 574.872 214.128 602.708 248.465 602.708H540.535C574.872 602.708 602.708 574.872 602.708 540.535V248.465C602.708 214.128 574.872 186.292 540.535 186.292H248.465ZM475.318 446.552C475.318 458.656 465.505 468.469 453.401 468.469H334.229C322.125 468.469 312.312 458.656 312.312 446.552V341.078C312.312 328.974 322.125 319.161 334.229 319.161H453.401C465.505 319.161 475.318 328.974 475.318 341.078V446.552Z" fill="#F5F2EB"/>
</svg>
